<svg width="64" height="33" viewBox="0 0 64 33" fill="none" xmlns="http://www.w3.org/2000/svg">
<mask id="mask0_8_72" style="mask-type:luminance" maskUnits="userSpaceOnUse" x="0" y="0" width="64" height="33">
<path d="M64 0H0V32.233H64V0Z" fill="white"/>
</mask>
<g mask="url(#mask0_8_72)">
<path d="M14.4493 23.0237C14.7538 23.0237 15.0554 22.9642 15.3367 22.8485C15.618 22.7328 15.8736 22.5632 16.089 22.3495C16.3043 22.1357 16.4751 21.8819 16.5917 21.6026C16.7082 21.3232 16.7682 21.0238 16.7682 20.7215C16.7682 16.4471 18.4783 12.3478 21.5224 9.32531C24.5664 6.30286 28.6952 4.60486 33.0001 4.60486C37.305 4.60486 41.4338 6.30286 44.4777 9.32531C47.5219 12.3478 49.232 16.4471 49.232 20.7215C49.238 21.3281 49.485 21.9078 49.9193 22.3347C50.3534 22.7615 50.9398 23.0009 51.5509 23.0009C52.1618 23.0009 52.7482 22.7615 53.1823 22.3347C53.6166 21.9078 53.8636 21.3281 53.8696 20.7215C53.8696 18.0003 53.3297 15.3058 52.2811 12.7918C51.2321 10.2778 49.695 7.99347 47.7571 6.06932C45.819 4.14518 43.5184 2.61886 40.9865 1.57753C38.4544 0.536184 35.7408 0.000213623 33.0001 0.000213623C30.2594 0.000213623 27.5458 0.536184 25.0137 1.57753C22.4817 2.61886 20.1811 4.14518 18.2431 6.06932C16.3052 7.99347 14.768 10.2778 13.7192 12.7918C12.6704 15.3058 12.1306 18.0003 12.1306 20.7215C12.1306 21.3321 12.3749 21.9176 12.8097 22.3494C13.2446 22.7811 13.8343 23.0237 14.4493 23.0237Z" fill="#A92225"/>
<path d="M62.6813 27.6283H42.2679C43.7793 25.6387 44.5956 23.2138 44.593 20.7215C44.593 17.6684 43.3714 14.7403 41.1972 12.5814C39.0227 10.4225 36.0737 9.20964 32.9987 9.20964C29.924 9.20964 26.9749 10.4225 24.8005 12.5814C22.6261 14.7403 21.4046 17.6684 21.4046 20.7215C21.4046 21.3321 21.6489 21.9178 22.0838 22.3496C22.5187 22.7813 23.1085 23.0239 23.7235 23.0239C24.3386 23.0239 24.9285 22.7813 25.3632 22.3496C25.7982 21.9178 26.0424 21.3321 26.0424 20.7215C26.0424 19.3554 26.4503 18.02 27.2147 16.8841C27.9791 15.7482 29.0656 14.8628 30.3367 14.34C31.6079 13.8172 33.0066 13.6804 34.356 13.9469C35.7054 14.2134 36.945 14.8712 37.9178 15.8371C38.8908 16.8031 39.5533 18.0338 39.8219 19.3737C40.0902 20.7135 39.9524 22.1023 39.426 23.3643C38.8993 24.6265 38.0078 25.7054 36.8638 26.4644C35.7197 27.2234 34.3747 27.6283 32.9989 27.6283H3.31889C3.01243 27.6254 2.7084 27.6826 2.42439 27.7971C2.14037 27.9113 1.882 28.0805 1.66421 28.2945C1.44642 28.5087 1.27353 28.7634 1.15554 29.0442C1.03756 29.3251 0.976807 29.6265 0.976807 29.9308C0.976807 30.2349 1.03756 30.5362 1.15554 30.8171C1.27353 31.098 1.44642 31.3527 1.66421 31.5669C1.882 31.7809 2.14037 31.95 2.42439 32.0643C2.7084 32.1788 3.01243 32.236 3.31889 32.233H62.6813C63.2922 32.227 63.8761 31.9818 64.306 31.5506C64.7358 31.1196 64.9771 30.5374 64.9771 29.9308C64.9771 29.324 64.7358 28.7418 64.306 28.3108C63.8761 27.8796 63.2922 27.6343 62.6813 27.6283Z" fill="#A92225"/>
</g>
</svg>
